{"title":"I Frankenstein 2014 CAM - H3LL2P4Y [P2PDL]","uid":9563447,"size":1888614765,"categoryP":"video","categoryS":"movies","magnet":"?xt=urn:btih:c86ff9f3a5e47898dd9c95eedc25e52077428003&amp;dn=I+Frankenstein+2014+CAM+-+H3LL2P4Y+%5BP2PDL%5D&amp;tr=udp%3A%2F%2Ftracker.openbittorrent.com%3A80&amp;tr=udp%3A%2F%2Fopen.demonii.com%3A1337&amp;tr=udp%3A%2F%2Ftracker.coppersurfer.tk%3A6969&amp;tr=udp%3A%2F%2Fexodus.desync.com%3A6969","seeders":1,"leechers":0,"uploader":"TeX","files":3,"time":1391471882,"description":" &lt;a href=&quot;http://i.imgur.com/yFMyVex.jpg&quot; rel=&quot;nofollow&quot; target=&quot;_NEW&quot;&gt;http://i.imgur.com/yFMyVex.jpg&lt;/a&gt;\n\nIMBD &lt;a href=&quot;\nhttp://www.imdb.com/title/tt1418377/&quot; rel=&quot;nofollow&quot; target=&quot;_NEW&quot;&gt;\nhttp://www.imdb.com/title/tt1418377/&lt;/a&gt;\n\nPlot\nFrankenstein's creature finds himself caught in an all-out, centuries old war between two immortal clans.\n\n\nGeneral\nComplete name                            : C:I.Frankenstein.2014.Cam[Read.Info]H3LL2P4Y.avi\nFormat                                   : AVI\nFormat/Info                              : Audio Video Interleave\nFile size                                : 1.74 GiB\nDuration                                 : 1h 21mn\nOverall bit rate                         : 3 055 Kbps\nWriting library                          : VirtualDub build 32842/release\n\n\n\nVideo\nID                                       : 0\nFormat                                   : AVC\nFormat/Info                              : Advanced Video Codec\nFormat profile                           : &lt;a class=&quot;__cf_email__&quot; href=&quot;/cdn-cgi/l/email-protection&quot; data-cfemail=&quot;d79fbeb0bf979be3f9e7&quot;&gt;[email&amp;#160;protected]&lt;/a&gt;&lt;script cf-hash='f9e31' type=&quot;text/javascript&quot;&gt;\n/* &lt;![CDATA[ */!function(){try{var t=&quot;currentScript&quot;in document?document.currentScript:function(){for(var t=document.getElementsByTagName(&quot;script&quot;),e=t.length;e--;)if(t[e].getAttribute(&quot;cf-hash&quot;))return t[e]}();if(t&amp;&amp;t.previousSibling){var e,r,n,i,c=t.previousSibling,a=c.getAttribute(&quot;data-cfemail&quot;);if(a){for(e=&quot;&quot;,r=parseInt(a.substr(0,2),16),n=2;a.length-n;n+=2)i=parseInt(a.substr(n,2),16)^r,e+=String.fromCharCode(i);e=document.createTextNode(e),c.parentNode.replaceChild(e,c)}}}catch(u){}}();/* ]]&gt; */&lt;/script&gt;\nFormat settings, CABAC                   : Yes\nFormat settings, ReFrames                : 4 frames\nCodec ID                                 : H264\nDuration                                 : 1h 21mn\nBit rate                                 : 1 500 Kbps\nWidth                                    : 720 pixels\nHeight                                   : 304 pixels\nDisplay aspect ratio                     : 2.35:1\nFrame rate                               : 50.000 fps\nColor space                              : YUV\nChroma subsampling                       : 4:2:0\nBit depth                                : 8 bits\nScan type                                : Progressive\nBits/(Pixel*Frame)                       : 0.137\nStream size                              : 874 MiB (49%)\nWriting library                          : x264 core 130 r2274bm c832fe9\nEncoding settings                        : cabac=1 / ref=3 / deblock=1:-1:-1 / analyse=0x3:0x113 / me=hex / subme=7 / psy=1 / psy_rd=1.00:0.15 / mixed_ref=1 / me_range=16 / chroma_me=1 / trellis=1 / 8x8dct=1 / cqm=0 / deadzone=21,11 / fast_pskip=1 / chroma_qp_offset=-3 / threads=12 / lookahead_threads=2 / sliced_threads=0 / nr=0 / decimate=1 / interlaced=0 / bluray_compat=0 / constrained_intra=0 / bframes=3 / b_pyramid=2 / b_adapt=1 / b_bias=0 / direct=1 / weightb=1 / open_gop=0 / weightp=2 / keyint=250 / keyint_min=25 / scenecut=40 / intra_refresh=0 / rc_lookahead=40 / rc=abr / mbtree=1 / bitrate=1500 / ratetol=1.0 / qcomp=0.60 / qpmin=0 / qpmax=69 / qpstep=4 / ip_ratio=1.40 / aq=1:1.00\n\n\n\n\nAudio\nID                                       : 1\nFormat                                   : PCM\nFormat settings, Endianness              : Little\nFormat settings, Sign                    : Signed\nCodec ID                                 : 1\nDuration                                 : 1h 21mn\nBit rate mode                            : Constant\nBit rate                                 : 1 536 Kbps\nChannel(s)                               : 2 channels\nSampling rate                            : 48.0 KHz\nBit depth                                : 16 bits\nStream size                              : 895 MiB (50%)\nAlignment                                : Aligned on interleaves\nInterleave, duration                     : 20 ms (1.00 video frame)\nInterleave, preload duration             : 500 ms\n &lt;a href=&quot;\nhttp://i.imgur.com/95Gx39Y.png&quot; rel=&quot;nofollow&quot; target=&quot;_NEW&quot;&gt;\nhttp://i.imgur.com/95Gx39Y.png&lt;/a&gt; &lt;a href=&quot;\nhttp://i.imgur.com/NNHOd6F.png&quot; rel=&quot;nofollow&quot; target=&quot;_NEW&quot;&gt;\nhttp://i.imgur.com/NNHOd6F.png&lt;/a&gt; &lt;a href=&quot;\nhttp://i.imgur.com/1w6ibyT.png&quot; rel=&quot;nofollow&quot; target=&quot;_NEW&quot;&gt;\nhttp://i.imgur.com/1w6ibyT.png&lt;/a&gt;","torrent":{"xt":"urn:btih:c86ff9f3a5e47898dd9c95eedc25e52077428003","amp;dn":"I+Frankenstein+2014+CAM+-+H3LL2P4Y+%5BP2PDL%5D","amp;tr":["udp%3A%2F%2Ftracker.openbittorrent.com%3A80","udp%3A%2F%2Fopen.demonii.com%3A1337","udp%3A%2F%2Ftracker.coppersurfer.tk%3A6969","udp%3A%2F%2Fexodus.desync.com%3A6969"],"infoHash":"c86ff9f3a5e47898dd9c95eedc25e52077428003","infoHashBuffer":{"type":"Buffer","data":[200,111,249,243,165,228,120,152,221,156,149,238,220,37,229,32,119,66,128,3]},"announce":[],"urlList":[]}}